<?xml version="1.0" encoding="UTF-8"?>
<svg xmlns="http://www.w3.org/2000/svg" width="2530" height="1420">
<circle fill="#FF0" stroke="#000" stroke-width="1" cx="2100" cy="1370" r="1" />
<circle fill="#FF0" stroke="#000" stroke-width="1" cx="1920" cy="1340" r="1" />
<circle fill="#FF0" stroke="#000" stroke-width="1" cx="2290" cy="1420" r="1" />
<circle fill="#FF0" stroke="#000" stroke-width="1" cx="2400" cy="1390" r="1" />
<circle fill="#FF0" stroke="#000" stroke-width="1" cx="1940" cy="1330" r="1" />
<circle fill="#FF0" stroke="#000" stroke-width="1" cx="2130" cy="1370" r="1" />
<circle fill="#FF0" stroke="#000" stroke-width="1" cx="2400" cy="1370" r="1" />
<circle fill="#FF0" stroke="#000" stroke-width="1" cx="2240" cy="1420" r="1" />
<circle fill="#FF0" stroke="#000" stroke-width="1" cx="2090" cy="1350" r="1" />
<circle fill="#FF0" stroke="#000" stroke-width="1" cx="2340" cy="1330" r="1" />
<circle fill="#FF0" stroke="#000" stroke-width="1" cx="1960" cy="1330" r="1" />
<circle fill="#FF0" stroke="#000" stroke-width="1" cx="2080" cy="1420" r="1" />
<circle fill="#FF0" stroke="#000" stroke-width="1" cx="2320" cy="1380" r="1" />
<circle fill="#FF0" stroke="#000" stroke-width="1" cx="2330" cy="1420" r="1" />
<circle fill="#FF0" stroke="#000" stroke-width="1" cx="2120" cy="1410" r="1" />
<circle fill="#FF0" stroke="#000" stroke-width="1" cx="2330" cy="1370" r="1" />
<circle fill="#FF0" stroke="#000" stroke-width="1" cx="2350" cy="1370" r="1" />
<circle fill="#FF0" stroke="#000" stroke-width="1" cx="2400" cy="1420" r="1" />
<circle fill="#FF0" stroke="#000" stroke-width="1" cx="2450" cy="1420" r="1" />
<circle fill="#FF0" stroke="#000" stroke-width="1" cx="2210" cy="1330" r="1" />
<circle fill="#FF0" stroke="#000" stroke-width="1" cx="2440" cy="1410" r="1" />
<circle fill="#FF0" stroke="#000" stroke-width="1" cx="2200" cy="1410" r="1" />
<circle fill="#FF0" stroke="#000" stroke-width="1" cx="2000" cy="1360" r="1" />
<circle fill="#FF0" stroke="#000" stroke-width="1" cx="2410" cy="1340" r="1" />
<circle fill="#FF0" stroke="#000" stroke-width="1" cx="2430" cy="1390" r="1" />
<circle fill="#FF0" stroke="#000" stroke-width="1" cx="2320" cy="1340" r="1" />
<circle fill="#FF0" stroke="#000" stroke-width="1" cx="2480" cy="1410" r="1" />
<circle fill="#FF0" stroke="#000" stroke-width="1" cx="2450" cy="1340" r="1" />
<circle fill="#FF0" stroke="#000" stroke-width="1" cx="2130" cy="1360" r="1" />
<circle fill="#FF0" stroke="#000" stroke-width="1" cx="1940" cy="1370" r="1" />
<circle fill="#FF0" stroke="#000" stroke-width="1" cx="2450" cy="1370" r="1" />
<circle fill="#FF0" stroke="#000" stroke-width="1" cx="2200" cy="1330" r="1" />
<circle fill="#FF0" stroke="#000" stroke-width="1" cx="1920" cy="1400" r="1" />
<circle fill="#FF0" stroke="#000" stroke-width="1" cx="2000" cy="1330" r="1" />
<circle fill="#FF0" stroke="#000" stroke-width="1" cx="2160" cy="1400" r="1" />
<circle fill="#FF0" stroke="#000" stroke-width="1" cx="2200" cy="1340" r="1" />
<circle fill="#FF0" stroke="#000" stroke-width="1" cx="2330" cy="1370" r="1" />
<circle fill="#FF0" stroke="#000" stroke-width="1" cx="2530" cy="1350" r="1" />
<circle fill="#FF0" stroke="#000" stroke-width="1" cx="2130" cy="1350" r="1" />
<circle fill="#FF0" stroke="#000" stroke-width="1" cx="2080" cy="1380" r="1" />
<circle fill="#FF0" stroke="#000" stroke-width="1" cx="2320" cy="1390" r="1" />
<circle fill="#FF0" stroke="#000" stroke-width="1" cx="1960" cy="1370" r="1" />
<circle fill="#FF0" stroke="#000" stroke-width="1" cx="2250" cy="1420" r="1" />
<circle fill="#FF0" stroke="#000" stroke-width="1" cx="2450" cy="1390" r="1" />
<circle fill="#FF0" stroke="#000" stroke-width="1" cx="2210" cy="1330" r="1" />
<circle fill="#FF0" stroke="#000" stroke-width="1" cx="2340" cy="1370" r="1" />
<circle fill="#FF0" stroke="#000" stroke-width="1" cx="2020" cy="1370" r="1" />
<circle fill="#FF0" stroke="#000" stroke-width="1" cx="2050" cy="1350" r="1" />
<circle fill="#FF0" stroke="#000" stroke-width="1" cx="2450" cy="1370" r="1" />
<circle fill="#FF0" stroke="#000" stroke-width="1" cx="2100" cy="1370" r="1" />
<circle fill="#FF0" stroke="#000" stroke-width="1" cx="2430" cy="1380" r="1" />
<circle fill="#FF0" stroke="#000" stroke-width="1" cx="2080" cy="1340" r="1" />
<circle fill="#FF0" stroke="#000" stroke-width="1" cx="2450" cy="1380" r="1" />
<circle fill="#FF0" stroke="#000" stroke-width="1" cx="2110" cy="1390" r="1" />
<circle fill="#FF0" stroke="#000" stroke-width="1" cx="2130" cy="1420" r="1" />
<circle fill="#FF0" stroke="#000" stroke-width="1" cx="2290" cy="1330" r="1" />
<circle fill="#FF0" stroke="#000" stroke-width="1" cx="2480" cy="1400" r="1" />
<circle fill="#FF0" stroke="#000" stroke-width="1" cx="2450" cy="1420" r="1" />
<circle fill="#FF0" stroke="#000" stroke-width="1" cx="2480" cy="1420" r="1" />
<circle fill="#FF0" stroke="#000" stroke-width="1" cx="2260" cy="1420" r="1" />
<circle fill="#FF0" stroke="#000" stroke-width="1" cx="1920" cy="1370" r="1" />
<circle fill="#FF0" stroke="#000" stroke-width="1" cx="2080" cy="1330" r="1" />
<circle fill="#FF0" stroke="#000" stroke-width="1" cx="2250" cy="1330" r="1" />
<circle fill="#FF0" stroke="#000" stroke-width="1" cx="1920" cy="1330" r="1" />
<circle fill="#FF0" stroke="#000" stroke-width="1" cx="2200" cy="1360" r="1" />
<circle fill="#FF0" stroke="#000" stroke-width="1" cx="2320" cy="1370" r="1" />
<circle fill="#FF0" stroke="#000" stroke-width="1" cx="2450" cy="1360" r="1" />
<circle fill="#FF0" stroke="#000" stroke-width="1" cx="1920" cy="1380" r="1" />
<circle fill="#FF0" stroke="#000" stroke-width="1" cx="2420" cy="1360" r="1" />
<circle fill="#FF0" stroke="#000" stroke-width="1" cx="1920" cy="1400" r="1" />
<circle fill="#FF0" stroke="#000" stroke-width="1" cx="2530" cy="1340" r="1" />
<circle fill="#FF0" stroke="#000" stroke-width="1" cx="2010" cy="1370" r="1" />
<circle fill="#FF0" stroke="#000" stroke-width="1" cx="2480" cy="1370" r="1" />
<circle fill="#FF0" stroke="#000" stroke-width="1" cx="2440" cy="1400" r="1" />
<circle fill="#FF0" stroke="#000" stroke-width="1" cx="2000" cy="1330" r="1" />
<circle fill="#FF0" stroke="#000" stroke-width="1" cx="1970" cy="1340" r="1" />
<circle fill="#FF0" stroke="#000" stroke-width="1" cx="2530" cy="1380" r="1" />
<circle fill="#FF0" stroke="#000" stroke-width="1" cx="2200" cy="1390" r="1" />
<circle fill="#FF0" stroke="#000" stroke-width="1" cx="2320" cy="1400" r="1" />
<circle fill="#FF0" stroke="#000" stroke-width="1" cx="2450" cy="1400" r="1" />
<circle fill="#FF0" stroke="#000" stroke-width="1" cx="2020" cy="1330" r="1" />
<circle fill="#FF0" stroke="#000" stroke-width="1" cx="1960" cy="1370" r="1" />
<circle fill="#FF0" stroke="#000" stroke-width="1" cx="2030" cy="1370" r="1" />
<circle fill="#FF0" stroke="#000" stroke-width="1" cx="2360" cy="1370" r="1" />
<circle fill="#FF0" stroke="#000" stroke-width="1" cx="2480" cy="1370" r="1" />
<circle fill="#FF0" stroke="#000" stroke-width="1" cx="2430" cy="1390" r="1" />
<circle fill="#FF0" stroke="#000" stroke-width="1" cx="2040" cy="1370" r="1" />
<circle fill="#FF0" stroke="#000" stroke-width="1" cx="2410" cy="1350" r="1" />
<circle fill="#FF0" stroke="#000" stroke-width="1" cx="2400" cy="1380" r="1" />
<circle fill="#FF0" stroke="#000" stroke-width="1" cx="2200" cy="1400" r="1" />
<circle fill="#FF0" stroke="#000" stroke-width="1" cx="1950" cy="1330" r="1" />
<circle fill="#FF0" stroke="#000" stroke-width="1" cx="2330" cy="1330" r="1" />
<circle fill="#FF0" stroke="#000" stroke-width="1" cx="2480" cy="1400" r="1" />
<circle fill="#FF0" stroke="#000" stroke-width="1" cx="2250" cy="1330" r="1" />
<circle fill="#FF0" stroke="#000" stroke-width="1" cx="1920" cy="1330" r="1" />
<circle fill="#FF0" stroke="#000" stroke-width="1" cx="2320" cy="1410" r="1" />
<circle fill="#FF0" stroke="#000" stroke-width="1" cx="1960" cy="1370" r="1" />
<circle fill="#FF0" stroke="#000" stroke-width="1" cx="2530" cy="1360" r="1" />
<circle fill="#FF0" stroke="#000" stroke-width="1" cx="2260" cy="1370" r="1" />
<circle fill="#FF0" stroke="#000" stroke-width="1" cx="2190" cy="1420" r="1" />
<circle fill="#FF0" stroke="#000" stroke-width="1" cx="2450" cy="1350" r="1" />
<circle fill="#FF0" stroke="#000" stroke-width="1" cx="2080" cy="1410" r="1" />
<circle fill="#FF0" stroke="#000" stroke-width="1" cx="2480" cy="1370" r="1" />
<circle fill="#FF0" stroke="#000" stroke-width="1" cx="2480" cy="1360" r="1" />
<circle fill="#FF0" stroke="#000" stroke-width="1" cx="1920" cy="1410" r="1" />
<circle fill="#FF0" stroke="#000" stroke-width="1" cx="1920" cy="1340" r="1" />
<circle fill="#FF0" stroke="#000" stroke-width="1" cx="2320" cy="1420" r="1" />
<circle fill="#FF0" stroke="#000" stroke-width="1" cx="2530" cy="1370" r="1" />
<circle fill="#FF0" stroke="#000" stroke-width="1" cx="2280" cy="1420" r="1" />
<circle fill="#FF0" stroke="#000" stroke-width="1" cx="2480" cy="1380" r="1" />
<circle fill="#FF0" stroke="#000" stroke-width="1" cx="2180" cy="1420" r="1" />
<circle fill="#FF0" stroke="#000" stroke-width="1" cx="1970" cy="1340" r="1" />
<circle fill="#FF0" stroke="#000" stroke-width="1" cx="2010" cy="1330" r="1" />
<circle fill="#FF0" stroke="#000" stroke-width="1" cx="2000" cy="1420" r="1" />
<circle fill="#FF0" stroke="#000" stroke-width="1" cx="2320" cy="1410" r="1" />
<circle fill="#FF0" stroke="#000" stroke-width="1" cx="2480" cy="1410" r="1" />
<circle fill="#FF0" stroke="#000" stroke-width="1" cx="2080" cy="1360" r="1" />
<circle fill="#FF0" stroke="#000" stroke-width="1" cx="2280" cy="1330" r="1" />
<circle fill="#FF0" stroke="#000" stroke-width="1" cx="2330" cy="1420" r="1" />
<circle fill="#FF0" stroke="#000" stroke-width="1" cx="2480" cy="1340" r="1" />
<circle fill="#FF0" stroke="#000" stroke-width="1" cx="2000" cy="1340" r="1" />
<circle fill="#FF0" stroke="#000" stroke-width="1" cx="2270" cy="1420" r="1" />
<circle fill="#FF0" stroke="#000" stroke-width="1" cx="2320" cy="1330" r="1" />
<circle fill="#FF0" stroke="#000" stroke-width="1" cx="2130" cy="1330" r="1" />
<circle fill="#FF0" stroke="#000" stroke-width="1" cx="2370" cy="1420" r="1" />
<circle fill="#FF0" stroke="#000" stroke-width="1" cx="2400" cy="1370" r="1" />
<circle fill="#FF0" stroke="#000" stroke-width="1" cx="2450" cy="1390" r="1" />
<circle fill="#FF0" stroke="#000" stroke-width="1" cx="2000" cy="1400" r="1" />
<circle fill="#FF0" stroke="#000" stroke-width="1" cx="2130" cy="1340" r="1" />
<circle fill="#FF0" stroke="#000" stroke-width="1" cx="2200" cy="1380" r="1" />
<circle fill="#FF0" stroke="#000" stroke-width="1" cx="2270" cy="1330" r="1" />
<circle fill="#FF0" stroke="#000" stroke-width="1" cx="2270" cy="1330" r="1" />
<circle fill="#FF0" stroke="#000" stroke-width="1" cx="2110" cy="1380" r="1" />
<circle fill="#FF0" stroke="#000" stroke-width="1" cx="2530" cy="1370" r="1" />
<circle fill="#FF0" stroke="#000" stroke-width="1" cx="2200" cy="1370" r="1" />
<circle fill="#FF0" stroke="#000" stroke-width="1" cx="2400" cy="1350" r="1" />
<circle fill="#FF0" stroke="#000" stroke-width="1" cx="2260" cy="1330" r="1" />
<circle fill="#FF0" stroke="#000" stroke-width="1" cx="2400" cy="1340" r="1" />
<circle fill="#FF0" stroke="#000" stroke-width="1" cx="1950" cy="1330" r="1" />
<circle fill="#FF0" stroke="#000" stroke-width="1" cx="2260" cy="1330" r="1" />
<circle fill="#FF0" stroke="#000" stroke-width="1" cx="2050" cy="1340" r="1" />
<circle fill="#FF0" stroke="#000" stroke-width="1" cx="2410" cy="1340" r="1" />
<circle fill="#FF0" stroke="#000" stroke-width="1" cx="2450" cy="1400" r="1" />
<circle fill="#FF0" stroke="#000" stroke-width="1" cx="2000" cy="1360" r="1" />
<circle fill="#FF0" stroke="#000" stroke-width="1" cx="2240" cy="1350" r="1" />
<circle fill="#FF0" stroke="#000" stroke-width="1" cx="2290" cy="1330" r="1" />
<circle fill="#FF0" stroke="#000" stroke-width="1" cx="2130" cy="1420" r="1" />
<circle fill="#FF0" stroke="#000" stroke-width="1" cx="2530" cy="1400" r="1" />
<circle fill="#FF0" stroke="#000" stroke-width="1" cx="2280" cy="1420" r="1" />
<circle fill="#FF0" stroke="#000" stroke-width="1" cx="1920" cy="1360" r="1" />
<circle fill="#FF0" stroke="#000" stroke-width="1" cx="2350" cy="1420" r="1" />
<circle fill="#FF0" stroke="#000" stroke-width="1" cx="2360" cy="1330" r="1" />
<circle fill="#FF0" stroke="#000" stroke-width="1" cx="2090" cy="1350" r="1" />
<circle fill="#FF0" stroke="#000" stroke-width="1" cx="2080" cy="1420" r="1" />
<circle fill="#FF0" stroke="#000" stroke-width="1" cx="2290" cy="1330" r="1" />
<circle fill="#FF0" stroke="#000" stroke-width="1" cx="2320" cy="1330" r="1" />
<circle fill="#FF0" stroke="#000" stroke-width="1" cx="2200" cy="1380" r="1" />
<circle fill="#FF0" stroke="#000" stroke-width="1" cx="2000" cy="1390" r="1" />
<circle fill="#FF0" stroke="#000" stroke-width="1" cx="2240" cy="1390" r="1" />
<circle fill="#FF0" stroke="#000" stroke-width="1" cx="2450" cy="1380" r="1" />
<circle fill="#FF0" stroke="#000" stroke-width="1" cx="1920" cy="1390" r="1" />
<circle fill="#FF0" stroke="#000" stroke-width="1" cx="2130" cy="1410" r="1" />
<circle fill="#FF0" stroke="#000" stroke-width="1" cx="2340" cy="1330" r="1" />
<circle fill="#FF0" stroke="#000" stroke-width="1" cx="1920" cy="1350" r="1" />
<circle fill="#FF0" stroke="#000" stroke-width="1" cx="2530" cy="1410" r="1" />
<circle fill="#FF0" stroke="#000" stroke-width="1" cx="2260" cy="1370" r="1" />
<circle fill="#FF0" stroke="#000" stroke-width="1" cx="2480" cy="1360" r="1" />
<circle fill="#FF0" stroke="#000" stroke-width="1" cx="2530" cy="1360" r="1" />
<circle fill="#FF0" stroke="#000" stroke-width="1" cx="2240" cy="1340" r="1" />
<circle fill="#FF0" stroke="#000" stroke-width="1" cx="2250" cy="1370" r="1" />
<circle fill="#FF0" stroke="#000" stroke-width="1" cx="2400" cy="1390" r="1" />
<circle fill="#FF0" stroke="#000" stroke-width="1" cx="2110" cy="1380" r="1" />
<circle fill="#FF0" stroke="#000" stroke-width="1" cx="2080" cy="1370" r="1" />
<circle fill="#FF0" stroke="#000" stroke-width="1" cx="2320" cy="1390" r="1" />
<circle fill="#FF0" stroke="#000" stroke-width="1" cx="2000" cy="1350" r="1" />
<circle fill="#FF0" stroke="#000" stroke-width="1" cx="2130" cy="1400" r="1" />
<circle fill="#FF0" stroke="#000" stroke-width="1" cx="2050" cy="1350" r="1" />
<circle fill="#FF0" stroke="#000" stroke-width="1" cx="2200" cy="1360" r="1" />
<circle fill="#FF0" stroke="#000" stroke-width="1" cx="2530" cy="1410" r="1" />
<circle fill="#FF0" stroke="#000" stroke-width="1" cx="2180" cy="1420" r="1" />
<circle fill="#FF0" stroke="#000" stroke-width="1" cx="2200" cy="1370" r="1" />
<circle fill="#FF0" stroke="#000" stroke-width="1" cx="2100" cy="1360" r="1" />
<circle fill="#FF0" stroke="#000" stroke-width="1" cx="2130" cy="1400" r="1" />
<circle fill="#FF0" stroke="#000" stroke-width="1" cx="2320" cy="1410" r="1" />
<circle fill="#FF0" stroke="#000" stroke-width="1" cx="2050" cy="1340" r="1" />
<circle fill="#FF0" stroke="#000" stroke-width="1" cx="2000" cy="1370" r="1" />
<circle fill="#FF0" stroke="#000" stroke-width="1" cx="2400" cy="1400" r="1" />
<circle fill="#FF0" stroke="#000" stroke-width="1" cx="2320" cy="1350" r="1" />
<circle fill="#FF0" stroke="#000" stroke-width="1" cx="2050" cy="1340" r="1" />
<circle fill="#FF0" stroke="#000" stroke-width="1" cx="2130" cy="1350" r="1" />
<circle fill="#FF0" stroke="#000" stroke-width="1" cx="2270" cy="1370" r="1" />
<circle fill="#FF0" stroke="#000" stroke-width="1" cx="2100" cy="1360" r="1" />
<circle fill="#FF0" stroke="#000" stroke-width="1" cx="2350" cy="1420" r="1" />
<circle fill="#FF0" stroke="#000" stroke-width="1" cx="2260" cy="1420" r="1" />
<circle fill="#FF0" stroke="#000" stroke-width="1" cx="2270" cy="1330" r="1" />
<circle fill="#FF0" stroke="#000" stroke-width="1" cx="2090" cy="1350" r="1" />
<circle fill="#FF0" stroke="#000" stroke-width="1" cx="2530" cy="1340" r="1" />
<circle fill="#FF0" stroke="#000" stroke-width="1" cx="2200" cy="1330" r="1" />
<circle fill="#FF0" stroke="#000" stroke-width="1" cx="2520" cy="1370" r="1" />
<circle fill="#FF0" stroke="#000" stroke-width="1" cx="2320" cy="1330" r="1" />
<circle fill="#FF0" stroke="#000" stroke-width="1" cx="1920" cy="1330" r="1" />
<circle fill="#FF0" stroke="#000" stroke-width="1" cx="2130" cy="1380" r="1" />
<circle fill="#FF0" stroke="#000" stroke-width="1" cx="1920" cy="1340" r="1" />
<circle fill="#FF0" stroke="#000" stroke-width="1" cx="2030" cy="1330" r="1" />
<circle fill="#FF0" stroke="#000" stroke-width="1" cx="2280" cy="1370" r="1" />
<circle fill="#FF0" stroke="#000" stroke-width="1" cx="2200" cy="1410" r="1" />
<circle fill="#FF0" stroke="#000" stroke-width="1" cx="2530" cy="1340" r="1" />
<circle fill="#FF0" stroke="#000" stroke-width="1" cx="2340" cy="1370" r="1" />
<circle fill="#FF0" stroke="#000" stroke-width="1" cx="2000" cy="1330" r="1" />
<circle fill="#FF0" stroke="#000" stroke-width="1" cx="2400" cy="1410" r="1" />
<circle fill="#FF0" stroke="#000" stroke-width="1" cx="2240" cy="1380" r="1" />
<circle fill="#FF0" stroke="#000" stroke-width="1" cx="2160" cy="1400" r="1" />
<circle fill="#FF0" stroke="#000" stroke-width="1" cx="2320" cy="1340" r="1" />
<circle fill="#FF0" stroke="#000" stroke-width="1" cx="1930" cy="1330" r="1" />
<circle fill="#FF0" stroke="#000" stroke-width="1" cx="2280" cy="1420" r="1" />
<circle fill="#FF0" stroke="#000" stroke-width="1" cx="2130" cy="1360" r="1" />
<circle fill="#FF0" stroke="#000" stroke-width="1" cx="2010" cy="1370" r="1" />
<circle fill="#FF0" stroke="#000" stroke-width="1" cx="2210" cy="1330" r="1" />
<circle fill="#FF0" stroke="#000" stroke-width="1" cx="2320" cy="1340" r="1" />
<circle fill="#FF0" stroke="#000" stroke-width="1" cx="2480" cy="1330" r="1" />
<circle fill="#FF0" stroke="#000" stroke-width="1" cx="2320" cy="1390" r="1" />
<circle fill="#FF0" stroke="#000" stroke-width="1" cx="2080" cy="1400" r="1" />
<circle fill="#FF0" stroke="#000" stroke-width="1" cx="2240" cy="1350" r="1" />
<circle fill="#FF0" stroke="#000" stroke-width="1" cx="2530" cy="1370" r="1" />
<circle fill="#FF0" stroke="#000" stroke-width="1" cx="2400" cy="1420" r="1" />
<circle fill="#FF0" stroke="#000" stroke-width="1" cx="2320" cy="1360" r="1" />
<circle fill="#FF0" stroke="#000" stroke-width="1" cx="2480" cy="1380" r="1" />
<circle fill="#FF0" stroke="#000" stroke-width="1" cx="2000" cy="1340" r="1" />
<circle fill="#FF0" stroke="#000" stroke-width="1" cx="2240" cy="1410" r="1" />
<circle fill="#FF0" stroke="#000" stroke-width="1" cx="2530" cy="1390" r="1" />
<circle fill="#FF0" stroke="#000" stroke-width="1" cx="2450" cy="1410" r="1" />
<circle fill="#FF0" stroke="#000" stroke-width="1" cx="2320" cy="1360" r="1" />
<circle fill="#FF0" stroke="#000" stroke-width="1" cx="2000" cy="1360" r="1" />
<circle fill="#FF0" stroke="#000" stroke-width="1" cx="2240" cy="1360" r="1" />
<circle fill="#FF0" stroke="#000" stroke-width="1" cx="2180" cy="1420" r="1" />
<circle fill="#FF0" stroke="#000" stroke-width="1" cx="2530" cy="1400" r="1" />
<circle fill="#FF0" stroke="#000" stroke-width="1" cx="2330" cy="1420" r="1" />
<circle fill="#FF0" stroke="#000" stroke-width="1" cx="2270" cy="1420" r="1" />
<circle fill="#FF0" stroke="#000" stroke-width="1" cx="2250" cy="1330" r="1" />
<circle fill="#FF0" stroke="#000" stroke-width="1" cx="2240" cy="1330" r="1" />
<circle fill="#FF0" stroke="#000" stroke-width="1" cx="2270" cy="1420" r="1" />
<circle fill="#FF0" stroke="#000" stroke-width="1" cx="2090" cy="1340" r="1" />
<circle fill="#FF0" stroke="#000" stroke-width="1" cx="2080" cy="1370" r="1" />
<circle fill="#FF0" stroke="#000" stroke-width="1" cx="1940" cy="1330" r="1" />
<circle fill="#FF0" stroke="#000" stroke-width="1" cx="2000" cy="1390" r="1" />
<circle fill="#FF0" stroke="#000" stroke-width="1" cx="2000" cy="1380" r="1" />
<circle fill="#FF0" stroke="#000" stroke-width="1" cx="2240" cy="1340" r="1" />
<circle fill="#FF0" stroke="#000" stroke-width="1" cx="2260" cy="1330" r="1" />
<circle fill="#FF0" stroke="#000" stroke-width="1" cx="1970" cy="1350" r="1" />
<circle fill="#FF0" stroke="#000" stroke-width="1" cx="2530" cy="1420" r="1" />
<circle fill="#FF0" stroke="#000" stroke-width="1" cx="2170" cy="1420" r="1" />
<circle fill="#FF0" stroke="#000" stroke-width="1" cx="1920" cy="1380" r="1" />
<circle fill="#FF0" stroke="#000" stroke-width="1" cx="2450" cy="1410" r="1" />
<circle fill="#FF0" stroke="#000" stroke-width="1" cx="2190" cy="1420" r="1" />
<circle fill="#FF0" stroke="#000" stroke-width="1" cx="1920" cy="1370" r="1" />
<circle fill="#FF0" stroke="#000" stroke-width="1" cx="2090" cy="1340" r="1" />
<circle fill="#FF0" stroke="#000" stroke-width="1" cx="2440" cy="1410" r="1" />
<circle fill="#FF0" stroke="#000" stroke-width="1" cx="2160" cy="1400" r="1" />
<circle fill="#FF0" stroke="#000" stroke-width="1" cx="2450" cy="1340" r="1" />
<circle fill="#FF0" stroke="#000" stroke-width="1" cx="2400" cy="1360" r="1" />
<circle fill="#FF0" stroke="#000" stroke-width="1" cx="2240" cy="1400" r="1" />
<circle fill="#FF0" stroke="#000" stroke-width="1" cx="2510" cy="1370" r="1" />
<circle fill="#FF0" stroke="#000" stroke-width="1" cx="2280" cy="1370" r="1" />
<circle fill="#FF0" stroke="#000" stroke-width="1" cx="2240" cy="1360" r="1" />
<circle fill="#FF0" stroke="#000" stroke-width="1" cx="2490" cy="1370" r="1" />
<circle fill="#FF0" stroke="#000" stroke-width="1" cx="2450" cy="1330" r="1" />
<circle fill="#FF0" stroke="#000" stroke-width="1" cx="2340" cy="1330" r="1" />
<circle fill="#FF0" stroke="#000" stroke-width="1" cx="2480" cy="1410" r="1" />
<circle fill="#FF0" stroke="#000" stroke-width="1" cx="2190" cy="1330" r="1" />
<circle fill="#FF0" stroke="#000" stroke-width="1" cx="2340" cy="1370" r="1" />
<circle fill="#FF0" stroke="#000" stroke-width="1" cx="1950" cy="1370" r="1" />
<circle fill="#FF0" stroke="#000" stroke-width="1" cx="2480" cy="1420" r="1" />
<circle fill="#FF0" stroke="#000" stroke-width="1" cx="2480" cy="1350" r="1" />
<circle fill="#FF0" stroke="#000" stroke-width="1" cx="2400" cy="1380" r="1" />
<circle fill="#FF0" stroke="#000" stroke-width="1" cx="2250" cy="1420" r="1" />
<circle fill="#FF0" stroke="#000" stroke-width="1" cx="2200" cy="1350" r="1" />
<circle fill="#FF0" stroke="#000" stroke-width="1" cx="1940" cy="1330" r="1" />
<circle fill="#FF0" stroke="#000" stroke-width="1" cx="2050" cy="1360" r="1" />
<circle fill="#FF0" stroke="#000" stroke-width="1" cx="2090" cy="1340" r="1" />
<circle fill="#FF0" stroke="#000" stroke-width="1" cx="2040" cy="1330" r="1" />
<circle fill="#FF0" stroke="#000" stroke-width="1" cx="2480" cy="1390" r="1" />
<circle fill="#FF0" stroke="#000" stroke-width="1" cx="1950" cy="1330" r="1" />
<circle fill="#FF0" stroke="#000" stroke-width="1" cx="2250" cy="1420" r="1" />
<circle fill="#FF0" stroke="#000" stroke-width="1" cx="2370" cy="1330" r="1" />
<circle fill="#FF0" stroke="#000" stroke-width="1" cx="2450" cy="1340" r="1" />
<circle fill="#FF0" stroke="#000" stroke-width="1" cx="2530" cy="1330" r="1" />
<circle fill="#FF0" stroke="#000" stroke-width="1" cx="2480" cy="1390" r="1" />
<circle fill="#FF0" stroke="#000" stroke-width="1" cx="2240" cy="1360" r="1" />
<circle fill="#FF0" stroke="#000" stroke-width="1" cx="2330" cy="1370" r="1" />
<circle fill="#FF0" stroke="#000" stroke-width="1" cx="2240" cy="1390" r="1" />
<circle fill="#FF0" stroke="#000" stroke-width="1" cx="2130" cy="1360" r="1" />
<circle fill="#FF0" stroke="#000" stroke-width="1" cx="2400" cy="1360" r="1" />
<circle fill="#FF0" stroke="#000" stroke-width="1" cx="2080" cy="1330" r="1" />
<circle fill="#FF0" stroke="#000" stroke-width="1" cx="2080" cy="1390" r="1" />
<circle fill="#FF0" stroke="#000" stroke-width="1" cx="2480" cy="1350" r="1" />
<circle fill="#FF0" stroke="#000" stroke-width="1" cx="1970" cy="1340" r="1" />
<circle fill="#FF0" stroke="#000" stroke-width="1" cx="2430" cy="1380" r="1" />
<circle fill="#FF0" stroke="#000" stroke-width="1" cx="2080" cy="1420" r="1" />
<circle fill="#FF0" stroke="#000" stroke-width="1" cx="2400" cy="1340" r="1" />
<circle fill="#FF0" stroke="#000" stroke-width="1" cx="2130" cy="1350" r="1" />
<circle fill="#FF0" stroke="#000" stroke-width="1" cx="2350" cy="1330" r="1" />
<circle fill="#FF0" stroke="#000" stroke-width="1" cx="2240" cy="1330" r="1" />
<circle fill="#FF0" stroke="#000" stroke-width="1" cx="2450" cy="1370" r="1" />
<circle fill="#FF0" stroke="#000" stroke-width="1" cx="1930" cy="1370" r="1" />
<circle fill="#FF0" stroke="#000" stroke-width="1" cx="2240" cy="1330" r="1" />
<circle fill="#FF0" stroke="#000" stroke-width="1" cx="1920" cy="1350" r="1" />
<circle fill="#FF0" stroke="#000" stroke-width="1" cx="2450" cy="1330" r="1" />
<circle fill="#FF0" stroke="#000" stroke-width="1" cx="2410" cy="1350" r="1" />
<circle fill="#FF0" stroke="#000" stroke-width="1" cx="2000" cy="1410" r="1" />
<circle fill="#FF0" stroke="#000" stroke-width="1" cx="2240" cy="1390" r="1" />
<circle fill="#FF0" stroke="#000" stroke-width="1" cx="2040" cy="1330" r="1" />
<circle fill="#FF0" stroke="#000" stroke-width="1" cx="2320" cy="1350" r="1" />
<circle fill="#FF0" stroke="#000" stroke-width="1" cx="2360" cy="1420" r="1" />
<circle fill="#FF0" stroke="#000" stroke-width="1" cx="2480" cy="1420" r="1" />
<circle fill="#FF0" stroke="#000" stroke-width="1" cx="2200" cy="1330" r="1" />
<circle fill="#FF0" stroke="#000" stroke-width="1" cx="2520" cy="1370" r="1" />
<circle fill="#FF0" stroke="#000" stroke-width="1" cx="2080" cy="1350" r="1" />
<circle fill="#FF0" stroke="#000" stroke-width="1" cx="2000" cy="1350" r="1" />
<circle fill="#FF0" stroke="#000" stroke-width="1" cx="2130" cy="1390" r="1" />
<circle fill="#FF0" stroke="#000" stroke-width="1" cx="2420" cy="1370" r="1" />
<circle fill="#FF0" stroke="#000" stroke-width="1" cx="1960" cy="1330" r="1" />
<circle fill="#FF0" stroke="#000" stroke-width="1" cx="2400" cy="1340" r="1" />
<circle fill="#FF0" stroke="#000" stroke-width="1" cx="2100" cy="1370" r="1" />
<circle fill="#FF0" stroke="#000" stroke-width="1" cx="2240" cy="1350" r="1" />
<circle fill="#FF0" stroke="#000" stroke-width="1" cx="2320" cy="1380" r="1" />
<circle fill="#FF0" stroke="#000" stroke-width="1" cx="1920" cy="1420" r="1" />
<circle fill="#FF0" stroke="#000" stroke-width="1" cx="1920" cy="1420" r="1" />
<circle fill="#FF0" stroke="#000" stroke-width="1" cx="2200" cy="1390" r="1" />
<circle fill="#FF0" stroke="#000" stroke-width="1" cx="2480" cy="1350" r="1" />
<circle fill="#FF0" stroke="#000" stroke-width="1" cx="2160" cy="1410" r="1" />
<circle fill="#FF0" stroke="#000" stroke-width="1" cx="2340" cy="1420" r="1" />
<circle fill="#FF0" stroke="#000" stroke-width="1" cx="2320" cy="1400" r="1" />
<circle fill="#FF0" stroke="#000" stroke-width="1" cx="2240" cy="1370" r="1" />
<circle fill="#FF0" stroke="#000" stroke-width="1" cx="1920" cy="1350" r="1" />
<circle fill="#FF0" stroke="#000" stroke-width="1" cx="2120" cy="1400" r="1" />
<circle fill="#FF0" stroke="#000" stroke-width="1" cx="2080" cy="1350" r="1" />
<circle fill="#FF0" stroke="#000" stroke-width="1" cx="2480" cy="1380" r="1" />
<circle fill="#FF0" stroke="#000" stroke-width="1" cx="2400" cy="1330" r="1" />
<circle fill="#FF0" stroke="#000" stroke-width="1" cx="2110" cy="1380" r="1" />
<circle fill="#FF0" stroke="#000" stroke-width="1" cx="2130" cy="1330" r="1" />
<circle fill="#FF0" stroke="#000" stroke-width="1" cx="2320" cy="1420" r="1" />
<circle fill="#FF0" stroke="#000" stroke-width="1" cx="2450" cy="1380" r="1" />
<circle fill="#FF0" stroke="#000" stroke-width="1" cx="2530" cy="1390" r="1" />
<circle fill="#FF0" stroke="#000" stroke-width="1" cx="2400" cy="1390" r="1" />
<circle fill="#FF0" stroke="#000" stroke-width="1" cx="1920" cy="1420" r="1" />
<circle fill="#FF0" stroke="#000" stroke-width="1" cx="2130" cy="1370" r="1" />
<circle fill="#FF0" stroke="#000" stroke-width="1" cx="2190" cy="1420" r="1" />
<circle fill="#FF0" stroke="#000" stroke-width="1" cx="2280" cy="1330" r="1" />
<circle fill="#FF0" stroke="#000" stroke-width="1" cx="2010" cy="1330" r="1" />
<circle fill="#FF0" stroke="#000" stroke-width="1" cx="2130" cy="1370" r="1" />
<circle fill="#FF0" stroke="#000" stroke-width="1" cx="2080" cy="1330" r="1" />
<circle fill="#FF0" stroke="#000" stroke-width="1" cx="2320" cy="1350" r="1" />
<circle fill="#FF0" stroke="#000" stroke-width="1" cx="2200" cy="1350" r="1" />
<circle fill="#FF0" stroke="#000" stroke-width="1" cx="2500" cy="1370" r="1" />
<circle fill="#FF0" stroke="#000" stroke-width="1" cx="2240" cy="1400" r="1" />
<circle fill="#FF0" stroke="#000" stroke-width="1" cx="1970" cy="1360" r="1" />
<circle fill="#FF0" stroke="#000" stroke-width="1" cx="2080" cy="1390" r="1" />
<circle fill="#FF0" stroke="#000" stroke-width="1" cx="2400" cy="1410" r="1" />
<circle fill="#FF0" stroke="#000" stroke-width="1" cx="1950" cy="1370" r="1" />
</svg>
